<svg width="75" height="60" viewBox="0 0 75 60" fill="none" xmlns="http://www.w3.org/2000/svg">
<path d="M37.5004 38.5714C43.4084 38.5714 48.2147 33.7646 48.2147 27.8571C48.2147 21.9496 43.4084 17.1429 37.5004 17.1429C31.5924 17.1429 26.7861 21.9496 26.7861 27.8571C26.7861 33.7646 31.5924 38.5714 37.5004 38.5714ZM37.5004 21.4286C41.0453 21.4286 43.929 24.3122 43.929 27.8571C43.929 31.4021 41.0453 34.2857 37.5004 34.2857C33.9555 34.2857 31.0718 31.4021 31.0718 27.8571C31.0718 24.3122 33.9555 21.4286 37.5004 21.4286Z" fill="#1656D3"/>
<path d="M15.4765 43.3332C20.334 43.3332 24.2859 39.3813 24.2859 34.5243C24.2859 29.6662 20.334 25.7143 15.4765 25.7143C10.6189 25.7143 6.66699 29.6662 6.66699 34.5243C6.66699 39.3813 10.6189 43.3332 15.4765 43.3332ZM15.4765 30C17.9709 30 20.0002 32.0298 20.0002 34.5243C20.0002 37.0187 17.9709 39.0475 15.4765 39.0475C12.982 39.0475 10.9527 37.0187 10.9527 34.5243C10.9527 32.0298 12.982 30 15.4765 30Z" fill="#1656D3"/>
<path d="M64.5237 44.0479H54.5236C53.9162 44.0479 53.3159 44.114 52.7219 44.2172C50.4199 42.0519 47.3308 40.7143 43.9286 40.7143H31.0714C27.6693 40.7143 24.5803 42.0518 22.2783 44.217C21.685 44.1139 21.0847 44.0479 20.4764 44.0479H10.4762C4.69953 44.0479 0 48.7469 0 54.5236V60H18.2143H20.3571H46.1907H56.7857H75V54.5236C75 48.7469 70.3004 44.0479 64.5237 44.0479ZM4.28571 55.7143V54.5236C4.28571 51.1105 7.06264 48.3336 10.4762 48.3336H19.341C18.6228 49.9355 18.2143 51.7051 18.2143 53.5714V55.7143H4.28571ZM46.1907 55.7143H22.5V53.5714C22.5 48.8452 26.3452 45 31.0714 45H43.9286C48.6548 45 52.5 48.8452 52.5 53.5714V55.7143H46.1907ZM70.7143 55.7143H56.7857V53.5714C56.7857 51.7051 56.3772 49.9355 55.6589 48.3336H64.5237C67.9373 48.3336 70.7143 51.1105 70.7143 54.5236V55.7143Z" fill="#1656D3"/>
<path d="M50.7148 34.5243C50.7148 39.3813 54.6668 43.3332 59.5243 43.3332C64.3818 43.3332 68.3338 39.3813 68.3338 34.5243C68.3338 29.6662 64.3818 25.7143 59.5243 25.7143C54.6668 25.7143 50.7148 29.6662 50.7148 34.5243ZM64.0481 34.5243C64.0481 37.0187 62.0187 39.0475 59.5243 39.0475C57.0299 39.0475 55.0006 37.0187 55.0006 34.5243C55.0006 32.0298 57.0299 30 59.5243 30C62.0187 30 64.0481 32.0298 64.0481 34.5243Z" fill="#1656D3"/>
<path d="M64.8277 11.8401C63.9906 11.0031 62.6341 11.0031 61.797 11.8401L59.5239 14.1129L57.2508 11.8401C56.4137 11.0031 55.0572 11.0031 54.2201 11.8401C53.3836 12.6772 53.3836 14.0343 54.2206 14.8703L56.4936 17.1429L54.2206 19.4155C53.3836 20.2515 53.3836 21.6085 54.2201 22.4456C54.6386 22.8641 55.1874 23.0734 55.7357 23.0734C56.284 23.0734 56.8322 22.8641 57.2508 22.4456L59.5239 20.1728L61.797 22.4456C62.2155 22.8641 62.7638 23.0734 63.3121 23.0734C63.8603 23.0734 64.4091 22.8641 64.8277 22.4456C65.6642 21.6085 65.6642 20.2515 64.8271 19.4155L62.5542 17.1429L64.8271 14.8703C65.6642 14.0343 65.6642 12.6772 64.8277 11.8401Z" fill="#1656D3"/>
<path d="M20.7798 11.8401C19.9428 11.0031 18.5862 11.0031 17.7492 11.8401L15.476 14.1129L13.2029 11.8401C12.3659 11.0031 11.0093 11.0031 10.1723 11.8401C9.33572 12.6772 9.33572 14.0343 10.1728 14.8703L12.4457 17.1429L10.1728 19.4155C9.33572 20.2515 9.33572 21.6085 10.1723 22.4456C10.5908 22.8641 11.1396 23.0734 11.6878 23.0734C12.2361 23.0734 12.7844 22.8641 13.2029 22.4456L15.476 20.1728L17.7492 22.4456C18.1677 22.8641 18.716 23.0734 19.2642 23.0734C19.8125 23.0734 20.3613 22.8641 20.7798 22.4456C21.6163 21.6085 21.6163 20.2515 20.7793 19.4155L18.5064 17.1429L20.7793 14.8703C21.6163 14.0343 21.6163 12.6772 20.7798 11.8401Z" fill="#1656D3"/>
<path d="M34.2859 13.9286C34.8341 13.9286 35.3829 13.7193 35.8009 13.3008L45.4438 3.65792C46.2808 2.82087 46.2808 1.46484 45.4438 0.62779C44.6078 -0.209263 43.2496 -0.209263 42.4136 0.62779L34.2859 8.75558L32.5866 7.05636C31.7506 6.2193 30.3925 6.2193 29.5565 7.05636C28.7194 7.89341 28.7194 9.24944 29.5565 10.0865L32.7708 13.3008C33.1888 13.7193 33.7376 13.9286 34.2859 13.9286Z" fill="#1656D3"/>
</svg>
